<svg width="1600" height="900" viewBox="0 0 1600 900" fill="none" xmlns="http://www.w3.org/2000/svg">
  <defs>
    <linearGradient id="g1" x1="0" y1="0" x2="1600" y2="900" gradientUnits="userSpaceOnUse">
      <stop offset="0" stop-color="#0B1F32"/>
      <stop offset="1" stop-color="#07223B"/>
    </linearGradient>

    <linearGradient id="g2" x1="0" y1="0" x2="1" y2="1">
      <stop offset="0" stop-color="#AAB0B4" stop-opacity="0.30"/>
      <stop offset="1" stop-color="#AAB0B4" stop-opacity="0.06"/>
    </linearGradient>

    <linearGradient id="g3" x1="0" y1="0" x2="1" y2="1">
      <stop offset="0" stop-color="#9DB7C6" stop-opacity="0.28"/>
      <stop offset="1" stop-color="#9DB7C6" stop-opacity="0.05"/>
    </linearGradient>

    <filter id="soft" x="-40" y="-40" width="1680" height="980" filterUnits="userSpaceOnUse" color-interpolation-filters="sRGB">
      <feGaussianBlur stdDeviation="14"/>
    </filter>
  </defs>

  <!-- Base -->
  <rect width="1600" height="900" fill="url(#g1)"/>

  <!-- angled light panels (TOP-RIGHT instead of top-left) -->
  <path d="M1600 0H960L1280 420H1600V0Z" fill="url(#g3)"/>
  <path d="M1480 0H840L1180 520H1600L1480 0Z" fill="url(#g2)"/>

  <!-- big diagonal dark slab (mirrored) -->
  <path d="M1340 560L620 120H0V900H1600L1340 560Z" fill="#061D33" opacity="0.55"/>

  <!-- subtle contour lines on LEFT instead of right -->
  <g opacity="0.12" filter="url(#soft)" stroke="#AAB0B4" stroke-width="6">
    <path d="M410 70C230 150 220 280 390 380C560 480 530 590 320 660C110 730 90 820 250 880"/>
    <path d="M340 30C160 130 150 270 320 370C490 470 460 590 250 660C40 730 20 830 180 900"/>
    <path d="M480 120C290 190 280 320 460 420C640 520 610 630 390 700C170 770 150 860 310 920"/>
  </g>
</svg>
